<svg width="245" height="85" viewBox="0 0 245 85" fill="none" xmlns="http://www.w3.org/2000/svg">
<path d="M41.9152 4.80181C41.9062 4.23749 42.067 3.6835 42.3767 3.21171C42.6865 2.73992 43.1309 2.37211 43.6523 2.15602C44.0017 2.00714 44.3779 1.93098 44.7577 1.93219H54.4164C57.7284 1.90945 60.9208 3.16877 63.3254 5.44653C64.9093 6.98886 66.0455 8.9317 66.6131 11.0684C67.1808 13.205 67.1586 15.4556 66.549 17.5807C66.2461 18.6311 65.794 19.6326 65.2066 20.5546C64.6284 21.4574 63.9339 22.2803 63.1411 23.0021C62.3358 23.7349 61.4377 24.3586 60.4698 24.8572L65.3386 30.7266C65.6274 30.9933 65.8523 31.3217 65.9967 31.6873C66.1349 32.0346 66.202 32.406 66.1941 32.7797C66.1849 33.1499 66.1091 33.5154 65.9703 33.8587C65.8305 34.2087 65.6148 34.5233 65.3386 34.7798C65.0807 35.0451 64.7718 35.2555 64.4305 35.3984C63.9441 35.5998 63.408 35.6484 62.8933 35.538C62.3786 35.4275 61.9097 35.1631 61.5488 34.7798L54.2324 26.278H47.6261V32.8052C47.6273 33.1851 47.5512 33.5612 47.4023 33.9107C47.2616 34.2493 47.0508 34.5542 46.7837 34.8054C46.5171 35.0532 46.21 35.2535 45.8756 35.3975C45.5224 35.549 45.1415 35.6252 44.7571 35.6213C44.3773 35.6225 44.0011 35.5464 43.6517 35.3975C43.3151 35.2578 43.0072 35.057 42.7436 34.8054C42.4834 34.5512 42.2775 34.2468 42.1384 33.9107C41.9895 33.5612 41.9133 33.1851 41.9146 32.8052L41.9152 4.80181ZM47.6261 7.64436V20.5406H54.4687C55.383 20.5469 56.2899 20.3771 57.14 20.0406C57.9415 19.7273 58.6778 19.2676 59.3114 18.6852C59.9246 18.1157 60.4205 17.4316 60.7711 16.6717C61.1314 15.897 61.3156 15.0521 61.3106 14.1977C61.3151 13.3226 61.1317 12.4567 60.7727 11.6587C60.0643 10.0632 58.7611 8.80728 57.1406 8.15831C56.301 7.81486 55.4019 7.64042 54.4948 7.64497L47.6261 7.64436Z" fill="white"/>
<path d="M130.055 22.3167L138.133 30.848C138.394 31.1057 138.596 31.417 138.725 31.7604C138.856 32.1019 138.922 32.4644 138.923 32.8299C138.922 33.1967 138.851 33.56 138.712 33.8995C138.565 34.2573 138.34 34.578 138.054 34.8386C137.524 35.348 136.816 35.6291 136.081 35.6214C135.71 35.6209 135.343 35.5455 135.002 35.3997C134.648 35.2501 134.334 35.0227 134.081 34.7343L126.083 26.0464L123.767 28.2378V32.8035C123.769 33.1761 123.693 33.5449 123.543 33.8861C123.401 34.2147 123.196 34.5118 122.938 34.7601C122.681 35.0057 122.382 35.2043 122.056 35.3471C121.716 35.4963 121.348 35.5719 120.977 35.5688C120.598 35.5701 120.222 35.4947 119.872 35.3471C119.533 35.2068 119.221 35.0082 118.951 34.7601C118.685 34.513 118.471 34.2161 118.319 33.8861C118.162 33.5471 118.081 33.1774 118.083 32.8035V4.70338C118.081 4.32943 118.162 3.95971 118.319 3.62073C118.471 3.29079 118.685 2.99381 118.951 2.74671C119.221 2.49868 119.533 2.30002 119.872 2.15977C120.222 2.01219 120.598 1.93678 120.977 1.93807C121.361 1.93419 121.742 2.00967 122.095 2.15977C122.759 2.43467 123.288 2.95877 123.569 3.61951C123.719 3.96076 123.795 4.32961 123.793 4.70216V20.8038L133.02 11.7895C133.266 11.5398 133.562 11.3443 133.888 11.2157C134.198 11.095 134.528 11.0332 134.861 11.0332C135.227 11.0365 135.589 11.1119 135.926 11.2549C136.3 11.4128 136.636 11.6484 136.912 11.9461C137.169 12.2151 137.375 12.5291 137.518 12.8725C137.656 13.2026 137.724 13.5583 137.715 13.9162C137.706 14.275 137.63 14.6289 137.491 14.9599C137.349 15.3023 137.133 15.6095 136.86 15.8601L130.055 22.3167Z" fill="white"/>
<path d="M106.619 22.3167L114.698 30.848C114.959 31.1057 115.161 31.417 115.29 31.7604C115.42 32.1019 115.487 32.4644 115.487 32.8299C115.487 33.1967 115.416 33.56 115.277 33.8995C115.13 34.2573 114.905 34.578 114.619 34.8386C114.089 35.348 113.38 35.6291 112.645 35.6214C112.274 35.6209 111.907 35.5455 111.566 35.3997C111.213 35.2501 110.898 35.0227 110.645 34.7343L102.647 26.0464L100.332 28.2378V32.8035C100.334 33.1761 100.258 33.5449 100.108 33.8861C99.9662 34.2147 99.7605 34.5118 99.5028 34.7601C99.2452 35.0057 98.9468 35.2043 98.6208 35.3471C98.2808 35.4963 97.9131 35.5719 97.5418 35.5688C97.1623 35.5701 96.7864 35.4947 96.4367 35.3471C96.0977 35.2068 95.7861 35.0082 95.5158 34.7601C95.25 34.513 95.0354 34.2161 94.8842 33.8861C94.7263 33.5471 94.6454 33.1774 94.6473 32.8035V4.70338C94.6454 4.32943 94.7263 3.95971 94.8842 3.62073C95.0354 3.29079 95.25 2.99381 95.5158 2.74671C95.7861 2.49868 96.0977 2.30002 96.4367 2.15977C96.7864 2.01219 97.1623 1.93678 97.5418 1.93807C97.9259 1.93419 98.3066 2.00967 98.6601 2.15977C99.3235 2.43467 99.8526 2.95877 100.134 3.61951C100.283 3.96076 100.359 4.32961 100.357 4.70216V20.8038L109.584 11.7895C109.831 11.5398 110.126 11.3443 110.453 11.2157C110.763 11.095 111.093 11.0332 111.426 11.0332C111.792 11.0365 112.153 11.1119 112.49 11.2549C112.864 11.4128 113.201 11.6484 113.477 11.9461C113.734 12.2151 113.939 12.5291 114.082 12.8725C114.221 13.2026 114.288 13.5583 114.28 13.9162C114.271 14.275 114.195 14.6289 114.056 14.9599C113.914 15.3023 113.698 15.6095 113.424 15.8601L106.619 22.3167Z" fill="white"/>
<path d="M146.189 34.6444C145.449 34.331 144.74 33.9465 144.074 33.4964C143.413 33.0492 142.796 32.5401 142.232 31.9759C141.667 31.4114 141.158 30.7944 140.711 30.1332C140.261 29.467 139.877 28.7588 139.563 28.0184C138.915 26.4854 138.583 24.8372 138.586 23.1727C138.583 21.5075 138.916 19.8588 139.565 18.3254C139.878 17.5851 140.263 16.8768 140.713 16.2106C141.16 15.5493 141.669 14.9323 142.233 14.368C142.797 13.8035 143.414 13.2944 144.076 12.8474C144.742 12.3972 145.45 12.0127 146.191 11.6994C147.724 11.0509 149.372 10.7187 151.036 10.7226C152.701 10.7192 154.349 11.052 155.882 11.7009C156.623 12.0143 157.331 12.3987 157.997 12.8489C158.658 13.2959 159.275 13.8051 159.84 14.3695C160.404 14.9338 160.913 15.5509 161.36 16.2121C161.81 16.8783 162.195 17.5865 162.508 18.3269C163.066 19.6432 163.39 21.0465 163.468 22.4739C163.48 22.5816 163.487 22.6899 163.487 22.7983C163.488 23.155 163.418 23.5083 163.281 23.8378C163.145 24.1673 162.944 24.4664 162.691 24.7179C162.44 24.9708 162.141 25.1713 161.811 25.3078C161.482 25.4443 161.129 25.5141 160.772 25.5131H144.602C144.649 25.6449 144.699 25.7758 144.754 25.9058C145.107 26.74 145.617 27.4979 146.259 28.1373C146.898 28.7786 147.656 29.2895 148.49 29.6418C149.355 30.0077 150.284 30.1954 151.223 30.1937C152.162 30.1955 153.091 30.0077 153.956 29.6418C154.286 29.5021 154.605 29.3374 154.91 29.1491C155.924 28.5227 156.171 28.134 157.027 28.134C157.747 28.134 158.437 28.42 158.946 28.9291C159.455 29.4381 159.741 30.1286 159.741 30.8485C159.742 31.2783 159.64 31.702 159.444 32.0846C159.248 32.4673 158.965 32.798 158.616 33.0494C158.413 33.2054 158.205 33.3553 157.996 33.4967C157.33 33.9468 156.622 34.3313 155.881 34.6448C154.348 35.2935 152.7 35.6262 151.035 35.6231C149.371 35.6262 147.722 35.2933 146.189 34.6444ZM157.529 20.0838C157.188 19.3887 156.735 18.755 156.187 18.2083C155.547 17.5671 154.789 17.0561 153.955 16.7039C153.091 16.3379 152.161 16.1503 151.222 16.1522C150.284 16.1503 149.354 16.3379 148.49 16.7039C147.655 17.0562 146.898 17.5671 146.258 18.2083C145.71 18.7549 145.256 19.3887 144.916 20.0838H157.529Z" fill="white"/>
<path d="M174.312 34.6403C173.545 34.3267 172.81 33.941 172.116 33.4883C171.432 33.0411 170.791 32.5301 170.203 31.9623C169.618 31.3978 169.089 30.7785 168.624 30.1129C168.157 29.4464 167.758 28.7355 167.431 27.9905C166.782 26.5127 166.437 24.9196 166.415 23.3057C166.415 23.2777 166.415 23.2497 166.415 23.2214V4.80674C166.429 4.04625 166.743 3.32206 167.29 2.79347C167.837 2.26487 168.571 1.97512 169.332 1.98789C170.092 1.9752 170.827 2.26504 171.374 2.79362C171.921 3.3222 172.235 4.04627 172.248 4.80674V10.6318H181.775C182.536 10.619 183.27 10.9087 183.817 11.4373C184.364 11.9659 184.679 12.6901 184.692 13.4506C184.679 14.2111 184.364 14.9351 183.817 15.4637C183.27 15.9923 182.536 16.2821 181.775 16.2694H172.248V23.9574C172.36 24.471 172.499 24.9786 172.663 25.4779C172.712 25.6105 172.765 25.7423 172.822 25.8733C173.191 26.7151 173.722 27.4761 174.384 28.1131C175.053 28.7599 175.84 29.2724 176.701 29.6231C177.602 29.9911 178.567 30.1793 179.54 30.1772C180.513 30.1793 181.477 29.991 182.378 29.6231C182.72 29.4833 183.051 29.3181 183.369 29.1289C184.422 28.5003 184.678 28.1098 185.567 28.1098C186.302 28.0975 187.012 28.3776 187.541 28.8885C188.069 29.3994 188.373 30.0993 188.386 30.8343C188.384 31.2694 188.277 31.6977 188.074 32.0823C187.87 32.467 187.577 32.7966 187.218 33.0431C187.008 33.1994 186.792 33.3502 186.574 33.4923C185.88 33.9448 185.145 34.3306 184.378 34.6443C182.78 35.2964 181.071 35.63 179.345 35.6263C177.619 35.6288 175.91 35.2939 174.312 34.6403Z" fill="white"/>
<path fill-rule="evenodd" clip-rule="evenodd" d="M79.5618 30.3011C83.416 30.3011 86.5405 27.1766 86.5405 23.3224C86.5405 19.4682 83.416 16.3438 79.5618 16.3438C75.7076 16.3438 72.5831 19.4682 72.5831 23.3224C72.5831 27.1766 75.7076 30.3011 79.5618 30.3011ZM79.5618 35.3011C86.1774 35.3011 91.5405 29.9381 91.5405 23.3224C91.5405 16.7068 86.1774 11.3438 79.5618 11.3438C72.9461 11.3438 67.5831 16.7068 67.5831 23.3224C67.5831 29.9381 72.9461 35.3011 79.5618 35.3011Z" fill="white"/>
<path d="M20.353 85H4.75994C3.66569 85 3.11857 84.4255 3.11857 83.2765V78.0241C3.11857 77.4223 3.22799 77.0119 3.44684 76.7931C3.66569 76.5195 4.10339 76.3828 4.75994 76.3828H18.4654C21.1464 76.3828 22.4868 75.5621 22.4868 73.9207V73.5103C22.4868 72.1972 21.3652 70.9389 19.122 69.7352L10.9972 65.2214C8.20684 63.7989 6.15511 62.2669 4.84201 60.6255C3.52891 58.9842 2.87236 56.8777 2.87236 54.3062C2.87236 50.4764 3.88454 47.6587 5.90891 45.8531C7.93327 44.0476 11.1066 43.1449 15.4289 43.1449H29.1344C30.2286 43.1449 30.7758 43.7193 30.7758 44.8683V50.2028C30.7758 50.8046 30.6663 51.2423 30.4475 51.5159C30.2286 51.7347 29.7909 51.8442 29.1344 51.8442H17.7268C15.0459 51.8442 13.7055 52.5281 13.7055 53.8959V54.3062C13.7055 55.5099 14.8818 56.7409 17.2344 57.9993L25.5234 62.9235C28.3684 64.4554 30.3654 66.0421 31.5144 67.6835C32.6634 69.2701 33.2378 71.3766 33.2378 74.0028C33.2378 81.3342 28.9429 85 20.353 85Z" fill="white"/>
<path d="M67.1714 77.6959V83.3586C67.1714 83.9604 67.0346 84.3981 66.761 84.6717C66.5422 84.8906 66.1045 85 65.4479 85H53.2197C48.8974 85 45.5599 83.851 43.2073 81.5531C40.8546 79.2552 39.6783 75.945 39.6783 71.6228V56.5221C39.6783 52.1998 40.8546 48.8897 43.2073 46.5918C45.5599 44.2938 48.8974 43.1449 53.2197 43.1449H65.4479C66.5969 43.1449 67.1714 43.7193 67.1714 44.8683V50.5311C67.1714 51.1329 67.0346 51.5706 66.761 51.8442C66.5422 52.063 66.1045 52.1724 65.4479 52.1724H54.8611C53.165 52.1724 51.9339 52.5554 51.168 53.3214C50.4567 54.0327 50.1011 55.2637 50.1011 57.0145V71.1303C50.1011 72.8811 50.4567 74.1395 51.168 74.9055C51.9339 75.6168 53.165 75.9724 54.8611 75.9724H65.4479C66.5969 75.9724 67.1714 76.5469 67.1714 77.6959Z" fill="white"/>
<path d="M74.6506 83.2765V44.8683C74.6506 43.7193 75.1977 43.1449 76.2919 43.1449H83.3498C84.4988 43.1449 85.0733 43.7193 85.0733 44.8683V83.2765C85.0733 83.9878 84.9365 84.4529 84.6629 84.6717C84.4441 84.8906 84.0338 85 83.4319 85H76.374C75.225 85 74.6506 84.4255 74.6506 83.2765Z" fill="white"/>
<path d="M125.375 85H107.238C102.915 85 99.5779 83.851 97.2253 81.5531C94.8726 79.2552 93.6963 75.945 93.6963 71.6228V56.5221C93.6963 52.1998 94.8726 48.8897 97.2253 46.5918C99.5779 44.2938 102.915 43.1449 107.238 43.1449H113.721C118.043 43.1449 121.381 44.2938 123.733 46.5918C126.086 48.8897 127.262 52.1998 127.262 56.5221V66.9448C127.262 68.0938 126.688 68.6683 125.539 68.6683H104.94C104.283 68.6683 103.955 68.9692 103.955 69.571V71.3766C103.955 73.0726 104.311 74.3037 105.022 75.0697C105.788 75.7809 107.046 76.1365 108.797 76.1365H125.375C126.524 76.1365 127.098 76.7384 127.098 77.9421V83.3586C127.098 83.9604 126.962 84.3981 126.688 84.6717C126.469 84.8906 126.031 85 125.375 85ZM104.94 61.6924H116.101C116.703 61.6924 117.004 61.3915 117.004 60.7897V56.8504C117.004 55.0996 116.648 53.8685 115.937 53.1573C115.226 52.446 113.995 52.0904 112.244 52.0904H108.797C107.046 52.0904 105.815 52.446 105.104 53.1573C104.393 53.8685 104.037 55.0996 104.037 56.8504V60.7897C104.037 61.3915 104.338 61.6924 104.94 61.6924Z" fill="white"/>
<path d="M143.77 85H136.794C135.645 85 135.071 84.4255 135.071 83.2765V44.8683C135.071 43.7193 135.645 43.1449 136.794 43.1449H143.77C144.919 43.1449 145.493 43.7193 145.493 44.8683V47.5766H145.822C147.025 44.6221 149.706 43.1449 153.864 43.1449H156.491C165.08 43.1449 169.375 47.6039 169.375 56.5221V83.2765C169.375 84.4255 168.773 85 167.57 85H160.676C159.527 85 158.953 84.4255 158.953 83.2765V57.0145C158.953 55.2637 158.57 54.0327 157.804 53.3214C157.092 52.5554 155.861 52.1724 154.111 52.1724H151.156C147.381 52.1724 145.493 54.2515 145.493 58.4097V83.2765C145.493 84.4255 144.919 85 143.77 85Z" fill="white"/>
<path d="M204.701 77.6959V83.3586C204.701 83.9604 204.564 84.3981 204.29 84.6717C204.072 84.8906 203.634 85 202.977 85H190.749C186.427 85 183.089 83.851 180.737 81.5531C178.384 79.2552 177.208 75.945 177.208 71.6228V56.5221C177.208 52.1998 178.384 48.8897 180.737 46.5918C183.089 44.2938 186.427 43.1449 190.749 43.1449H202.977C204.126 43.1449 204.701 43.7193 204.701 44.8683V50.5311C204.701 51.1329 204.564 51.5706 204.29 51.8442C204.072 52.063 203.634 52.1724 202.977 52.1724H192.39C190.694 52.1724 189.463 52.5554 188.697 53.3214C187.986 54.0327 187.631 55.2637 187.631 57.0145V71.1303C187.631 72.8811 187.986 74.1395 188.697 74.9055C189.463 75.6168 190.694 75.9724 192.39 75.9724H202.977C204.126 75.9724 204.701 76.5469 204.701 77.6959Z" fill="white"/>
<path d="M242.628 85H224.49C220.168 85 216.831 83.851 214.478 81.5531C212.125 79.2552 210.949 75.945 210.949 71.6228V56.5221C210.949 52.1998 212.125 48.8897 214.478 46.5918C216.831 44.2938 220.168 43.1449 224.49 43.1449H230.974C235.296 43.1449 238.633 44.2938 240.986 46.5918C243.339 48.8897 244.515 52.1998 244.515 56.5221V66.9448C244.515 68.0938 243.941 68.6683 242.792 68.6683H222.192C221.536 68.6683 221.208 68.9692 221.208 69.571V71.3766C221.208 73.0726 221.563 74.3037 222.274 75.0697C223.04 75.7809 224.299 76.1365 226.05 76.1365H242.628C243.776 76.1365 244.351 76.7384 244.351 77.9421V83.3586C244.351 83.9604 244.214 84.3981 243.941 84.6717C243.722 84.8906 243.284 85 242.628 85ZM222.192 61.6924H233.354C233.956 61.6924 234.257 61.3915 234.257 60.7897V56.8504C234.257 55.0996 233.901 53.8685 233.19 53.1573C232.478 52.446 231.247 52.0904 229.496 52.0904H226.05C224.299 52.0904 223.068 52.446 222.357 53.1573C221.645 53.8685 221.29 55.0996 221.29 56.8504V60.7897C221.29 61.3915 221.591 61.6924 222.192 61.6924Z" fill="white"/>
<g clip-path="url(#clip0)">
<path d="M2.33333 28.9061C2.65121 28.4066 12.8727 12.3443 13.1877 11.8494V6.55742C11.3798 6.55742 9.90897 5.08659 9.90897 3.27871C9.90897 1.47083 11.3797 0 13.1877 0H24.1167C25.9246 0 27.3954 1.47083 27.3954 3.27871C27.3954 5.08659 25.9246 6.55742 24.1167 6.55742V11.8494L34.971 28.9061C37.2887 32.5483 34.6771 37.3044 30.3608 37.3044H6.94356C2.62651 37.3044 0.0160065 32.5477 2.33333 28.9061ZM22.1017 12.7544C21.9901 12.579 21.9308 12.3755 21.9308 12.1677V6.55742C21.3273 6.55742 20.8379 6.06809 20.8379 5.46451C20.8379 4.86094 21.3273 4.37161 21.9308 4.37161H24.1166C24.7193 4.37161 25.2095 3.88134 25.2095 3.27871C25.2095 2.67608 24.7193 2.18581 24.1166 2.18581H13.1876C12.585 2.18581 12.0947 2.67608 12.0947 3.27871C12.0947 3.88134 12.585 4.37161 13.1876 4.37161H15.3734C15.977 4.37161 16.4663 4.86094 16.4663 5.46451C16.4663 6.06809 15.977 6.55742 15.3734 6.55742V12.1677C15.3734 12.3755 15.3142 12.579 15.2026 12.7544L12.2311 17.4238C14.7744 16.8797 17.48 17.3587 19.7366 18.8631L23.1516 21.1399C24.6664 22.1498 26.4568 22.5774 28.2276 22.381L22.1017 12.7544ZM6.94356 35.1186H30.3608C32.9509 35.1186 34.5174 32.2646 33.1269 30.0797L29.5012 24.3822C28.7999 24.5367 28.0909 24.6144 27.3849 24.6144C25.4696 24.6144 23.5787 24.0515 21.9394 22.9586L18.5243 20.6819C16.0138 19.0082 12.7891 18.9651 10.2411 20.5512L4.17756 30.0797C2.78674 32.2649 4.35374 35.1186 6.94356 35.1186Z" fill="white"/>
<path d="M25.2096 26.3754C27.0175 26.3754 28.4883 27.8463 28.4883 29.6541C28.4883 31.462 27.0175 32.9328 25.2096 32.9328C23.4018 32.9328 21.9309 31.462 21.9309 29.6541C21.9309 27.8463 23.4017 26.3754 25.2096 26.3754ZM25.2096 30.747C25.8123 30.747 26.3025 30.2568 26.3025 29.6541C26.3025 29.0515 25.8123 28.5612 25.2096 28.5612C24.607 28.5612 24.1167 29.0515 24.1167 29.6541C24.1167 30.2568 24.6069 30.747 25.2096 30.747Z" fill="white"/>
<path d="M14.2806 22.0038C16.0885 22.0038 17.5593 23.4747 17.5593 25.2826C17.5593 27.0904 16.0885 28.5613 14.2806 28.5613C12.4727 28.5613 11.0019 27.0904 11.0019 25.2826C11.0019 23.4747 12.4726 22.0038 14.2806 22.0038ZM14.2806 26.3755C14.8832 26.3755 15.3735 25.8852 15.3735 25.2826C15.3735 24.6799 14.8832 24.1897 14.2806 24.1897C13.678 24.1897 13.1877 24.6799 13.1877 25.2826C13.1877 25.8852 13.6779 26.3755 14.2806 26.3755Z" fill="white"/>
<path d="M18.6522 30.747C18.0486 30.747 17.5593 30.2577 17.5593 29.6541C17.5593 29.0505 18.0486 28.5612 18.6522 28.5612C19.2558 28.5612 19.7451 29.0505 19.7451 29.6541C19.7451 30.2577 19.2558 30.747 18.6522 30.747Z" fill="white"/>
<path d="M9.90899 30.747C9.30539 30.747 8.81608 30.2577 8.81608 29.6541C8.81608 29.0505 9.30539 28.5612 9.90899 28.5612C10.5126 28.5612 11.0019 29.0505 11.0019 29.6541C11.0019 30.2577 10.5126 30.747 9.90899 30.747Z" fill="white"/>
<path d="M14.2806 32.933C13.677 32.933 13.1877 32.4437 13.1877 31.8401C13.1877 31.2365 13.677 30.7472 14.2806 30.7472C14.8842 30.7472 15.3735 31.2365 15.3735 31.8401C15.3735 32.4437 14.8842 32.933 14.2806 32.933Z" fill="white"/>
</g>
<defs>
<clipPath id="clip0">
<rect width="37.3044" height="37.3044" fill="white" transform="matrix(-1 0 0 1 37.3044 0)"/>
</clipPath>
</defs>
</svg>
